<svg height="512" width="512" xmlns="http://www.w3.org/2000/svg"><path d="M511.994 256c0 141.387-114.607 255.988-255.988 255.988-141.377 0-255.984-114.602-256-255.98C.022 114.627 114.629.018 256.006.012 397.387.018 511.994 114.627 511.994 256z" fill="#7F4232"/><path d="M349.974 137.313l-38.538 38.547-22.914-22.906-61.953 30.906-59.46-59.46-11.398 11.389 10.445 10.445-4.047-1.031-5.313 3.719-14.352-14.352-14.367 14.375 11.828 11.828-6.234 4.375-19.855 46.688 18.863 18.859-4.758 2.375 56.867 104.482-51.414 51.412L256.389 511.98c134.936-.203 245.324-104.805 254.871-237.357L379.48 142.852l-11.977 11.984-17.529-17.523z" opacity=".2"/><g fill="#F4F6F9"><path d="M256.006 320.826c30.102 0 54.523-24.383 54.539-54.508-.016-30.1-24.438-54.506-54.539-54.506-30.117 0-54.507 24.406-54.507 54.514 0 30.117 24.39 54.5 54.507 54.5zm-29.82-84.357c7.953-7.938 18.555-12.328 29.813-12.328 11.297-.008 21.875 4.391 29.859 12.328 7.945 7.992 12.328 18.594 12.328 29.85 0 11.289-4.383 21.875-12.344 29.852-7.969 7.969-18.57 12.336-29.844 12.328-11.258 0-21.852-4.367-29.813-12.328-7.968-7.977-12.351-18.57-12.351-29.852.001-11.264 4.384-21.858 12.352-29.85zm106.631-113.201H179.219l.227 66.803H167.11V124.4a64.95 64.95 0 0 0-12.32 3.594v62.076h-12.336l-.008-55.5c-17.297 11.773-28.645 31.609-28.652 54.117v23.125h88.558c13.766-13.492 32.601-21.805 53.421-21.813 20.789.008 39.633 8.32 53.383 21.813l89.068-.016V188.68c-.001-36.117-29.275-65.405-65.407-65.412zM364.324 190l-32.257-.008v-32.227h32.272L364.324 190z"/><path d="M332.067 266.318c0 42.148-34.163 76.328-76.296 76.336-42.163-.008-76.326-34.188-76.326-76.336 0-15.592 4.664-30.084 12.718-42.178h-78.37v118.154c.008 36.117 29.285 65.404 65.426 65.412H332.81c36.14-.008 65.413-29.295 65.413-65.42V224.133l-78.873.008c8.061 12.093 12.71 26.586 12.717 42.177z"/></g></svg>