<svg height="512" width="512" xmlns="http://www.w3.org/2000/svg"><path d="M511.994 256.008c0 141.379-114.607 255.98-255.996 255.98C114.613 511.988.006 397.387.006 256 .006 114.611 114.613.012 255.998.012c141.389 0 255.996 114.599 255.996 255.996z" fill="#007CB8"/><path d="M280.373 211.672l-6.984 6.984-84.365-84.367-45.727 45.719 45.328 45.32-50.602 163.41L261.13 511.855c109.311-2.156 201.794-72.766 236.332-170.771L380.645 224.273l-76.49 11.188-23.782-23.789z" opacity=".1"/><path d="M197.569 155.898c0 18.047-14.515 32.664-32.421 32.664-17.891 0-32.406-14.617-32.406-32.656 0-18.023 14.516-32.646 32.406-32.646 17.907 0 32.421 14.623 32.421 32.638zm-4.742 55.844h-54.819l.016 176.996 54.804-.008V211.742zm87.609 0h-52.563V388.73l52.563.008v-92.904c.008-24.891 11.461-39.703 33.398-39.703 20.155 0 29.851 14.219 29.851 39.703v92.896h54.538V276.677c0-47.436-26.875-70.334-64.429-70.334s-53.358 29.25-53.358 29.25v-23.851z" fill="#F4F6F9"/></svg>