<svg height="512" width="512" xmlns="http://www.w3.org/2000/svg"><path d="M511.992 256.008c0 141.387-114.6 255.98-255.988 255.98C114.608 511.988.008 397.394.008 256.008-.004 114.619 114.607.012 255.996.012 397.393.012 512 114.619 511.992 256.008z" fill="#2556A0"/><path d="M265.074 370.74l-47.757 47.764 88.585 88.594c104.943-20.734 186.832-105.563 203.129-212.029L329.073 115.104 183.068 288.725l82.006 82.015z" opacity=".15"/><path d="M277.996 233.047l.008-49.664h.047a11.172 11.172 0 0 1-.055-1.023c0-6.43 5.211-11.648 11.633-11.648h39.444l-.008-20.055.008-7.742v-27.811h-58.147l-.008.188c-30 2.313-53.601 27.389-53.601 57.967v59.797l-34.397-.008v55.631h34.397v129.826h60.679V281.99h39.5l6.163-48.943h-45.663z" fill="#F4F6F9"/></svg>